{"title":"Elephant (2003) DVDRip Dual EN/PT-BR eDonkers","uid":5050351,"size":1465296896,"categoryP":"video","categoryS":"movies","magnet":"?xt=urn:btih:b0f20daeff3e3726cd12f2a4201f09bb3c80b9ff&amp;dn=Elephant+%282003%29+DVDRip+Dual+EN%2FPT-BR+eDonkers&amp;tr=udp%3A%2F%2Ftracker.openbittorrent.com%3A80&amp;tr=udp%3A%2F%2Fopen.demonii.com%3A1337&amp;tr=udp%3A%2F%2Ftracker.coppersurfer.tk%3A6969&amp;tr=udp%3A%2F%2Fexodus.desync.com%3A6969","seeders":5,"leechers":2,"uploader":"mimako","files":1,"time":1250121827,"description":"General\nComplete name                    : Elephant.(2003).DVDRip.Xvid.AC3.Dual-eDonkers.avi\nFormat                           : AVI\nFormat/Info                      : Audio Video Interleave\nFile size                        : 1.36 GiB\nDuration                         : 1h 21mn\nOverall bit rate                 : 2 399 Kbps\nWriting application              : VirtualDubMod 1.5.10.2 (build 2540/release)\nWriting library                  : VirtualDubMod build 2540/release\n\nVideo\nFormat                           : MPEG-4 Visual\nFormat profile                   : Streaming Video@L1\nFormat settings, BVOP            : Yes\nFormat settings, QPel            : No\nFormat settings, GMC             : No warppoints\nFormat settings, Matrix          : Default (H.263)\nCodec ID                         : XVID\nCodec ID/Hint                    : XviD\nDuration                         : 1h 21mn\nBit rate                         : 1 809 Kbps\nWidth                            : 704 pixels\nHeight                           : 400 pixels\nDisplay aspect ratio             : 16/9\nFrame rate                       : 23.976 fps\nResolution                       : 24 bits\nColorimetry                      : 4:2:0\nScan type                        : Progressive\nBits/(Pixel*Frame)               : 0.268\nStream size                      : 1.03 GiB (75%)\nWriting library                  : XviD 1.2.0.dev47 (UTC 2006-11-01)\n\nAudio #1\nFormat                           : AC-3\nFormat/Info                      : Audio Coding 3\nCodec ID                         : 2000\nDuration                         : 1h 21mn\nBit rate mode                    : Constant\nBit rate                         : 384 Kbps\nChannel(s)                       : 6 channels\nChannel positions                : Front: L C R, Surround: L R, LFE\nSampling rate                    : 48.0 KHz\nVideo delay                      : 2ms\nStream size                      : 224 MiB (16%)\nAlignment                        : Split accross interleaves\nInterleave, duration             : 42 ms (1.00 video frame)\nInterleave, preload duration     : 500 ms\n\nAudio #2\nFormat                           : AC-3\nFormat/Info                      : Audio Coding 3\nFormat profile                   : Dolby Digital\nCodec ID                         : 2000\nDuration                         : 1h 21mn\nBit rate mode                    : Constant\nBit rate                         : 192 Kbps\nChannel(s)                       : 2 channels\nChannel positions                : L R\nSampling rate                    : 48.0 KHz\nVideo delay                      : 2ms\nStream size                      : 112 MiB (8%)\nAlignment                        : Split accross interleaves\nInterleave, duration             : 42 ms (1.00 video frame)\nInterleave, preload duration     : 500 ms\n\n","torrent":{"xt":"urn:btih:b0f20daeff3e3726cd12f2a4201f09bb3c80b9ff","amp;dn":"Elephant+%282003%29+DVDRip+Dual+EN%2FPT-BR+eDonkers","amp;tr":["udp%3A%2F%2Ftracker.openbittorrent.com%3A80","udp%3A%2F%2Fopen.demonii.com%3A1337","udp%3A%2F%2Ftracker.coppersurfer.tk%3A6969","udp%3A%2F%2Fexodus.desync.com%3A6969"],"infoHash":"b0f20daeff3e3726cd12f2a4201f09bb3c80b9ff","infoHashBuffer":{"type":"Buffer","data":[176,242,13,174,255,62,55,38,205,18,242,164,32,31,9,187,60,128,185,255]},"announce":[],"urlList":[]}}